<!-- <?xml version="1.0" standalone="no"?>
<!DOCTYPE svg PUBLIC "-//W3C//DTD SVG 20010904//EN"
 "http://www.w3.org/TR/2001/REC-SVG-20010904/DTD/svg10.dtd"> -->
<svg version="1.0" xmlns="http://www.w3.org/2000/svg"
 width="1025.000000pt" height="1025.000000pt" viewBox="0 0 1025.000000 1025.000000"
 preserveAspectRatio="xMidYMid meet">

<g transform="translate(0.000000,1025.000000) scale(0.100000,-0.100000)"
fill="#000000" stroke="none">
<path d="M5495 7354 c-4 -16 -11 -45 -16 -64 -15 -58 -11 -81 19 -104 180
-140 410 -378 560 -579 171 -229 379 -602 479 -857 300 -769 327 -1470 77
-1960 -146 -286 -422 -540 -759 -701 -235 -112 -524 -193 -774 -219 -116 -11
-348 -14 -337 -3 3 4 57 17 120 30 447 90 815 287 1111 594 242 251 375 527
421 869 15 117 18 200 6 200 -4 0 -13 -33 -19 -72 -39 -244 -193 -542 -395
-762 -237 -260 -621 -488 -1006 -600 -279 -81 -478 -107 -827 -107 -251 0
-295 -3 -295 -21 0 -14 180 -95 322 -143 279 -96 508 -129 878 -129 241 0 281
3 435 28 640 104 1117 335 1515 735 459 461 695 1124 630 1772 -41 410 -195
814 -426 1122 -206 275 -397 455 -664 630 -293 190 -675 331 -982 363 l-67 7
-6 -29z"/>
<path d="M4735 7344 c-804 -108 -1498 -610 -1861 -1347 -155 -316 -228 -634
-228 -992 0 -372 84 -719 254 -1043 61 -116 170 -292 181 -292 4 0 21 60 39
133 105 426 264 1019 356 1327 169 563 290 888 459 1238 196 405 361 622 606
799 91 66 204 130 279 159 96 36 78 40 -85 18z"/>
<path d="M5190 7316 c-165 -47 -338 -154 -486 -300 -169 -168 -269 -345 -464
-816 -56 -135 -144 -346 -195 -470 -191 -460 -306 -732 -424 -998 -160 -361
-423 -937 -473 -1035 l-39 -78 105 -117 c57 -64 137 -147 178 -183 101 -91
259 -210 272 -206 15 4 168 305 249 487 69 155 333 791 567 1365 219 537 453
1075 732 1679 153 331 234 536 253 637 7 36 6 36 -32 42 -61 11 -194 6 -243
-7z"/>
<path d="M5405 6984 c-9 -32 -34 -113 -55 -179 -21 -66 -54 -176 -75 -245 -20
-69 -142 -476 -270 -905 -129 -429 -277 -928 -330 -1110 -204 -696 -252 -841
-341 -1019 -91 -182 -220 -347 -344 -442 -33 -25 -47 -41 -40 -48 15 -15 327
10 430 34 407 94 718 263 988 539 216 220 375 506 477 857 99 340 108 817 24
1239 -63 319 -115 476 -414 1254 l-33 84 -17 -59z"/>
</g>
</svg>
